<svg xmlns="http://www.w3.org/2000/svg" width="39.793" height="39.784" viewBox="0 0 39.793 39.784"><path d="M19.9,11.93a10.2,10.2,0,1,0,10.2,10.2A10.184,10.184,0,0,0,19.9,11.93Zm0,16.831a6.631,6.631,0,1,1,6.631-6.631A6.643,6.643,0,0,1,19.9,28.761Zm13-17.249a2.379,2.379,0,1,1-2.379-2.379A2.374,2.374,0,0,1,32.892,11.512Zm6.756,2.415c-.151-3.187-.879-6.01-3.214-8.336S31.285,2.537,28.1,2.378c-3.285-.186-13.13-.186-16.414,0-3.178.151-6,.879-8.336,3.2S.294,10.731.135,13.918c-.186,3.285-.186,13.13,0,16.414.151,3.187.879,6.01,3.214,8.336s5.149,3.054,8.336,3.214c3.285.186,13.13.186,16.414,0,3.187-.151,6.01-.879,8.336-3.214s3.054-5.149,3.214-8.336c.186-3.285.186-13.121,0-16.405ZM35.4,33.857a6.714,6.714,0,0,1-3.782,3.782c-2.619,1.039-8.833.8-11.727.8s-9.117.231-11.727-.8a6.714,6.714,0,0,1-3.782-3.782c-1.039-2.619-.8-8.833-.8-11.727s-.231-9.117.8-11.727A6.714,6.714,0,0,1,8.169,6.621c2.619-1.039,8.833-.8,11.727-.8s9.117-.231,11.727.8A6.714,6.714,0,0,1,35.4,10.4c1.039,2.619.8,8.833.8,11.727S36.443,31.247,35.4,33.857Z" transform="translate(0.005 -2.238)" fill="#751d6d"/></svg>