<svg xmlns="http://www.w3.org/2000/svg" width="36.844" height="36.837" viewBox="0 0 36.844 36.837"><path d="M30.3,7.428A17.663,17.663,0,0,0,2.505,28.736L0,37.883l9.362-2.458A17.6,17.6,0,0,0,17.8,37.573h.008A17.827,17.827,0,0,0,35.633,19.915,17.727,17.727,0,0,0,30.3,7.428ZM17.809,34.6a14.65,14.65,0,0,1-7.477-2.044L9.8,32.236,4.247,33.691l1.479-5.417-.35-.557a14.7,14.7,0,1,1,27.274-7.8A14.84,14.84,0,0,1,17.809,34.6Zm8.049-10.992c-.437-.223-2.609-1.289-3.014-1.432s-.7-.223-.994.223-1.137,1.432-1.4,1.734-.517.334-.954.111c-2.593-1.3-4.3-2.315-6.005-5.25-.453-.779.453-.724,1.3-2.41a.818.818,0,0,0-.04-.772c-.111-.223-.994-2.394-1.36-3.277-.358-.859-.724-.74-.994-.756-.255-.016-.549-.016-.843-.016a1.634,1.634,0,0,0-1.177.549,4.958,4.958,0,0,0-1.543,3.683,8.643,8.643,0,0,0,1.8,4.565c.223.294,3.11,4.748,7.54,6.665,2.8,1.209,3.9,1.312,5.3,1.106.851-.127,2.609-1.066,2.975-2.1a3.69,3.69,0,0,0,.255-2.1C26.59,23.932,26.3,23.821,25.858,23.606Z" transform="translate(0.711 -1.75)" fill="#fff" stroke="#fff" stroke-width="1"/></svg>